:SAMPLES-PER-SECOND 30
:FULLY-SPECIFIED
:DEGREES
16
root  83.822 40.387 -3.85101 -177.206 -87.4407 178.949
RightUpLeg  -3.76096 -8.16571 -6.07131
RightLeg  2.34155 -2.41375 3.63594
RightFoot  0.472597 -0.0225718 0.244943
RightToes  4.07452e-010 0 -3.6325e-017
Spine  2.35753 0.0519287 -0.186639
Spine1  2.34313 0.0956542 -0.281583
HEad  -3.99354 3.32232 1.1504
LeftShoulder1  1.05243 -1.08452 -16.0167
LeftArm  -16.4962 14.196 -2.97584
LeftForeArm  9.30463 -3.00384 -1.58101
LeftHand  -0.244104 0.0205437 5.32207
RightShoulder  0.850615 1.01016 11.7273
RightArm  -17.4626 -1.39989 1.61802
RightForeArm  4.06677 2.36991 3.80712
RightHand  -1.15883 3.44764 -15.3893
LeftUpLeg  -2.5088 6.20072 3.78105
LeftLeg  1.88144 15.104 -4.75745
LeftFoot  -1.52939 -0.0236376 0.47483
LeftToes  1.0186e-010 1.09309e-010 2.97394e-011
17
root  83.8004 40.3873 -3.84112 -177.515 -87.4439 179.234
RightUpLeg  -3.71221 -8.18481 -6.09104
RightLeg  2.36365 -2.38099 3.64802
RightFoot  0.463944 -0.0227233 0.243821
RightToes  4.07452e-010 0 -3.6325e-017
Spine  2.45715 0.00694479 -0.177579
Spine1  2.31939 0.0394523 -0.234829
HEad  -3.91841 3.55423 1.08005
LeftShoulder1  1.00969 -0.885986 -16.0911
LeftArm  -16.8082 14.1092 -3.13477
LeftForeArm  9.57063 -3.05152 -1.47315
LeftHand  -0.244104 0.0205437 5.32207
RightShoulder  0.82835 0.91596 11.62
RightArm  -17.8948 -1.23846 1.88142
RightForeArm  4.5966 2.43427 3.66605
RightHand  -1.14001 3.36647 -15.2825
LeftUpLeg  -2.44992 6.21101 3.78637
LeftLeg  1.88194 15.1022 -4.76583
LeftFoot  -1.56765 -0.0240197 0.480767
LeftToes  1.0186e-010 1.09309e-010 2.97394e-011
18
root  83.7807 40.3879 -3.82663 -177.367 -87.4042 179.096
RightUpLeg  -3.70439 -8.23109 -6.13477
RightLeg  2.36968 -2.28905 3.67577
RightFoot  0.487541 -0.0209608 0.213046
RightToes  4.07452e-010 0 -3.6325e-017
Spine  2.44423 -0.00355107 -0.175208
Spine1  2.41261 0.023255 -0.205314
HEad  -3.79753 3.57149 1.08717
LeftShoulder1  1.00064 -0.827727 -16.196
LeftArm  -17.297 14.2196 -3.38578
LeftForeArm  9.75163 -3.4627 -1.33385
LeftHand  -0.244104 0.0205437 5.32207
RightShoulder  0.790556 0.717827 11.6026
RightArm  -18.7421 -1.00204 2.35673
RightForeArm  5.59118 2.4777 3.37744
RightHand  -1.21643 3.81464 -15.5138
LeftUpLeg  -2.4302 6.17276 3.74029
LeftLeg  1.88139 15.2014 -4.74
LeftFoot  -1.60325 -0.0245323 0.488734
LeftToes  1.0186e-010 1.09309e-010 2.97394e-011
19
root  83.76 40.3893 -3.80854 -177.356 -87.3095 179.126
RightUpLeg  -3.70336 -8.26004 -6.16505
RightLeg  2.29887 -2.17539 3.70131
RightFoot  0.549568 -0.0214458 0.217088
RightToes  4.07452e-010 0 -3.6325e-017
Spine  2.2464 -0.0217474 -0.244816
Spine1  2.72462 -0.0275338 -0.0496425
HEad  -3.76765 3.35823 0.997871
LeftShoulder1  1.01872 -0.857053 -16.4779
LeftArm  -18.2804 14.6855 -3.96231
LeftForeArm  10.1911 -4.51489 -1.0702
LeftHand  -0.244104 0.0205437 5.32207
RightShoulder  0.802174 0.753323 11.7313
RightArm  -19.6034 -0.965103 3.05199
RightForeArm  4.54237 2.85185 3.26154
RightHand  -1.31983 4.10994 -16.2993
LeftUpLeg  -2.42202 6.13828 3.69368
LeftLeg  1.85088 15.3537 -4.72385
LeftFoot  -1.63291 -0.0274604 0.534241
LeftToes  1.0186e-010 1.09309e-010 2.97394e-011
20
root  83.7404 40.3924 -3.78682 -177.682 -87.2021 179.476
RightUpLeg  -3.6606 -8.2743 -6.18748
RightLeg  2.18132 -2.06415 3.72364
RightFoot  0.618868 -0.025215 0.271909
RightToes  4.07452e-010 0 -3.6325e-017
Spine  2.07456 -0.053354 -0.297307
Spine1  3.01878 -0.0907614 0.0917763
HEad  -3.71857 3.24498 0.840711
LeftShoulder1  1.06741 -0.974493 -16.9958
LeftArm  -19.7983 15.5327 -5.02132
LeftForeArm  11.4938 -6.50944 -0.74283
LeftHand  -0.244104 0.0205437 5.32207
RightShoulder  0.91132 1.18357 12.387
RightArm  -19.9723 -1.4836 3.72371
RightForeArm  0.977087 4.02829 3.54067
RightHand  -1.38987 3.97909 -17.3649
LeftUpLeg  -2.37931 6.11253 3.66396
LeftLeg  1.79145 15.4968 -4.71781
LeftFoot  -1.65785 -0.0297058 0.569138
LeftToes  1.0186e-010 1.09309e-010 2.97394e-011
21
root  83.7235 40.3955 -3.76114 -177.94 -87.0793 179.731
RightUpLeg  -3.60225 -8.30917 -6.23044
RightLeg  2.08777 -1.89922 3.75658
RightFoot  0.683686 -0.0277217 0.308512
RightToes  4.07452e-010 0 -3.6325e-017
Spine  2.09212 -0.0508671 -0.260059
Spine1  3.06815 -0.0914067 0.101504
HEad  -3.58762 3.32526 0.676503
LeftShoulder1  1.17517 -1.2472 -17.9741
LeftArm  -21.375 16.6138 -6.28238
LeftForeArm  13.7188 -9.49186 -0.638277
LeftHand  -0.244104 0.0205437 5.32207
RightShoulder  1.08819 1.78078 13.6652
RightArm  -19.8855 -2.45381 4.44447
RightForeArm  -1.78399 5.9171 3.97277
RightHand  -1.46629 4.05464 -18.1502
LeftUpLeg  -2.30113 6.06101 3.61838
LeftLeg  1.71326 15.6645 -4.69293
LeftFoot  -1.6713 -0.0284124 0.549038
LeftToes  1.0186e-010 1.09309e-010 2.97394e-011
22
root  83.7078 40.3967 -3.73444 -178.05 -86.8983 179.85
RightUpLeg  -3.59312 -8.32109 -6.26082
RightLeg  2.02779 -1.68923 3.76246
RightFoot  0.748435 -0.0293958 0.322888
RightToes  4.07452e-010 0 -3.6325e-017
Spine  2.1702 0.0210546 -0.22542
Spine1  3.02303 -0.0313436 0.162822
HEad  -3.36033 3.3862 0.477422
LeftShoulder1  1.36953 -1.69757 -19.697
LeftArm  -22.7497 17.6631 -7.39181
LeftForeArm  16.3917 -12.9439 -0.978841
LeftHand  -0.244104 0.0205437 5.32207
RightShoulder  1.2741 2.29655 15.182
RightArm  -19.6864 -3.50432 5.60402
RightForeArm  -1.24111 7.95844 4.23337
RightHand  -1.53602 4.43289 -18.2861
LeftUpLeg  -2.23684 6.02301 3.5715
LeftLeg  1.64977 15.872 -4.6761
LeftFoot  -1.68908 -0.026267 0.515695
LeftToes  1.0186e-010 1.09309e-010 2.97394e-011
23
root  83.6932 40.3961 -3.70907 -178.337 -86.6886 -179.839
RightUpLeg  -3.62345 -8.22924 -6.22646
RightLeg  1.98208 -1.56894 3.67599
RightFoot  0.782843 -0.0381813 0.398726
RightToes  4.07452e-010 0 -3.6325e-017
Spine  2.18772 0.133141 -0.263547
Spine1  3.10982 0.0257917 0.425073
HEad  -3.18595 3.31086 0.158842
LeftShoulder1  1.66022 -2.29995 -22.1346
LeftArm  -23.9535 18.4127 -8.4092
LeftForeArm  18.9367 -15.9747 -1.65909
LeftHand  -0.244104 0.0205437 5.32207
RightShoulder  1.48443 2.83157 16.7765
RightArm  -19.2921 -4.6231 7.21931
RightForeArm  0.60052 9.9804 4.38896
RightHand  -1.51792 4.41209 -18.1129
LeftUpLeg  -2.20871 6.05592 3.56938
LeftLeg  1.6537 16.0363 -4.70057
LeftFoot  -1.74735 -0.0265545 0.520163
LeftToes  1.0186e-010 1.09309e-010 2.97394e-011
24
root  83.6814 40.3947 -3.68169 -178.837 -86.5454 -179.364
RightUpLeg  -3.6087 -8.07346 -6.16234
RightLeg  1.96344 -1.59506 3.52195
RightFoot  0.765766 -0.0513568 0.530575
RightToes  4.07452e-010 0 -3.6325e-017
Spine  2.23277 0.226424 -0.189424
Spine1  3.29729 0.0858793 0.572244
HEad  -3.1737 3.19437 -0.19089
LeftShoulder1  2.0505 -3.07421 -24.8543
LeftArm  -24.4904 18.7183 -9.65953
LeftForeArm  20.7144 -17.9158 -2.24762
LeftHand  -0.244104 0.0205437 5.32207
RightShoulder  1.79991 3.58045 18.9087
RightArm  -18.227 -6.03652 8.80805
RightForeArm  0.86663 12.2568 4.60066
RightHand  -1.42544 3.7671 -18.1939
LeftUpLeg  -2.17509 6.08326 3.5752
LeftLeg  1.73316 16.1272 -4.69157
LeftFoot  -1.8406 -0.0265767 0.520508
LeftToes  1.0186e-010 1.09309e-010 2.97394e-011
25
root  83.6719 40.3932 -3.64855 -179.259 -86.5064 -179.034
RightUpLeg  -3.5129 -7.98965 -6.15438
RightLeg  1.97115 -1.63922 3.41409
RightFoot  0.743368 -0.0602448 0.616943
RightToes  4.07452e-010 0 -3.6325e-017
Spine  2.2959 0.263609 0.193681
Spine1  3.56939 0.189772 0.24731
HEad  -3.21275 3.1208 -0.410807
LeftShoulder1  2.53998 -4.02936 -27.5179
LeftArm  -24.142 18.6062 -11.2052
LeftForeArm  21.6825 -18.6716 -2.53451
LeftHand  -0.244104 0.0205437 5.32207
RightShoulder  2.24205 4.45726 21.8679
RightArm  -16.6147 -7.59663 10.1636
RightForeArm  0.204218 14.6782 4.77132
RightHand  -1.36303 3.24607 -18.422
LeftUpLeg  -2.11189 5.98636 3.50681
LeftLeg  1.84095 16.2323 -4.55486
LeftFoot  -1.92565 -0.0220845 0.450692
LeftToes  1.0186e-010 1.09309e-010 2.97394e-011
26
root  83.6607 40.3914 -3.61274 -179.43 -86.5443 -178.943
RightUpLeg  -3.40074 -8.02638 -6.22369
RightLeg  1.97157 -1.60952 3.41054
RightFoot  0.73894 -0.064806 0.659558
RightToes  4.07452e-010 0 -3.6325e-017
Spine  2.13901 0.243972 0.691819
Spine1  4.13802 0.271403 -0.236851
HEad  -3.2416 3.11475 -0.609414
LeftShoulder1  3.13004 -5.08536 -30.316
LeftArm  -23.1718 18.1334 -12.8347
LeftForeArm  21.8095 -18.4765 -2.59472
LeftHand  -0.244104 0.0205437 5.32207
RightShoulder  2.73749 5.25043 25.1575
RightArm  -15.0986 -8.91133 11.6459
RightForeArm  0.413043 16.6893 4.78283
RightHand  -1.35452 3.32076 -18.1641
LeftUpLeg  -2.07068 5.8393 3.39224
LeftLeg  1.94441 16.3377 -4.38145
LeftFoot  -2.00529 -0.0161365 0.358254
LeftToes  1.0186e-010 1.09309e-010 2.97394e-011
27
root  83.646 40.3878 -3.58092 -179.483 -86.6615 -178.902
RightUpLeg  -3.33808 -8.11153 -6.31999
RightLeg  1.97964 -1.60532 3.45824
RightFoot  0.675769 -0.0742689 0.751458
RightToes  4.07452e-010 0 -3.6325e-017
Spine  1.74823 0.194686 0.911082
Spine1  5.00423 0.213005 -0.228286
HEad  -3.46718 3.23253 -1.04271
LeftShoulder1  3.83927 -6.16033 -33.6187
LeftArm  -21.9649 17.2727 -14.3975
LeftForeArm  21.1376 -17.4218 -2.52527
LeftHand  -0.244104 0.0205437 5.32207
RightShoulder  3.22165 5.92903 28.1484
RightArm  -13.8448 -9.9729 13.5489
RightForeArm  1.25912 18.1154 4.73512
RightHand  -1.32305 3.52916 -17.3519
LeftUpLeg  -2.08012 5.85633 3.36314
LeftLeg  2.02768 16.2257 -4.39973
LeftFoot  -2.11904 -0.0158395 0.35329
LeftToes  1.0186e-010 1.09309e-010 2.97394e-011
28
root  83.6314 40.3791 -3.55724 -179.627 -86.8558 -178.751
RightUpLeg  -3.33185 -8.17237 -6.39277
RightLeg  2.10567 -1.7209 3.48043
RightFoot  0.477055 -0.0864171 0.874594
RightToes  4.07452e-010 0 -3.6325e-017
Spine  1.50131 0.136446 0.814764
Spine1  5.74727 0.0294594 0.279209
HEad  -3.96051 3.5 -1.59296
LeftShoulder1  4.65986 -7.23693 -37.2155
LeftArm  -20.651 16.0983 -15.9867
LeftForeArm  20.2361 -15.5316 -2.43615
LeftHand  -0.244104 0.0205437 5.32207
RightShoulder  3.70054 6.56121 30.812
RightArm  -12.2757 -11.0143 15.8099
RightForeArm  2.22277 19.1911 4.69571
RightHand  -1.2315 3.33245 -16.5352
LeftUpLeg  -2.06027 6.09767 3.47777
LeftLeg  2.05012 15.7811 -4.67972
LeftFoot  -2.25259 -0.0196725 0.423628
LeftToes  1.0186e-010 1.09309e-010 2.97394e-011
